<?xml version="1.0" encoding="utf-8"?>
<!-- Generator: Adobe Illustrator 22.0.1, SVG Export Plug-In . SVG Version: 6.00 Build 0)  -->
<svg version="1.1" id="Layer_1" xmlns="http://www.w3.org/2000/svg" xmlns:xlink="http://www.w3.org/1999/xlink" x="0px" y="0px"
	 viewBox="0 0 100 52.3" style="enable-background:new 0 0 100 52.3;" xml:space="preserve">
<style type="text/css">
	.st0{fill:#2A85AA;}
</style>
<g>
	<circle class="st0" cx="24.7" cy="34" r="3.5"/>
	<circle class="st0" cx="24.7" cy="20" r="3.5"/>
	<circle class="st0" cx="17.7" cy="27" r="3.5"/>
	<path class="st0" d="M74.6,6.6c-10.7,0-25.1,16.7-26.8,18.6c-5.4,6.4-16.3,16.6-22.5,16.6c-8.1,0-14.8-6.6-14.8-14.8
		c0-8.1,6.6-14.8,14.8-14.8c4,0,10.7,4.5,18.2,12c0.4,0.4,1,0.4,1.3,0l2.7-2.6c0.4-0.4,0.4-1,0-1.3C41.2,13.9,32.4,6.6,25.3,6.6
		C14.1,6.6,5,15.8,5,27s9.1,20.4,20.4,20.4c10.7,0,25.1-16.7,26.8-18.6c5.4-6.4,16.3-16.6,22.5-16.6c8.1,0,14.8,6.6,14.8,14.8
		c0,8.1-6.6,14.8-14.8,14.8c-3.9,0-10.3-4.1-17.5-11.3c-0.4-0.4-1-0.4-1.3,0l-2.7,2.6c-0.4,0.4-0.4,1,0,1.3c8.7,8.6,15.9,13,21.5,13
		C85.9,47.4,95,38.2,95,27S85.9,6.6,74.6,6.6z"/>
	<circle class="st0" cx="75.3" cy="20" r="3.5"/>
	<circle class="st0" cx="75.3" cy="34" r="3.5"/>
	<circle class="st0" cx="82.3" cy="27" r="3.5"/>
</g>
</svg>
