<?xml version="1.0" encoding="utf-8"?>
<!-- Generator: Adobe Illustrator 22.0.1, SVG Export Plug-In . SVG Version: 6.00 Build 0)  -->
<svg version="1.1" id="Layer_1" xmlns="http://www.w3.org/2000/svg" xmlns:xlink="http://www.w3.org/1999/xlink" x="0px" y="0px"
	 viewBox="0 0 512 516" style="enable-background:new 0 0 512 516;" xml:space="preserve">
<style type="text/css">
	.st0{fill:#45A777;}
</style>
<path class="st0" d="M454.6,240c-21.9,0-40.9,12.8-49.8,31.4l-46.4-8.3c0.1-1.4,0.2-2.7,0.2-4c0-56.5-46-102.5-102.5-102.5
	c-23.2,0-44.5,7.8-61.7,20.9l-64.1-64.2c7.3-11,11.5-24.2,11.5-38.3c-0.2-38.7-31.5-70-70-70S2,36.3,2,74.8s31.3,69.8,69.8,69.8
	c14.2,0,27.3-4.3,38.4-11.5l64.1,64.2c-13,17.2-20.8,38.5-20.8,61.7c0,29.3,12.4,55.7,32.1,74.4l-51.7,72.4
	c-6.1-2.3-12.7-3.6-19.6-3.6c-30.6,0-55.4,24.9-55.4,55.4S83.8,513,114.4,513s55.4-24.9,55.4-55.4c0-13.5-4.8-25.8-12.8-35.4
	l51.6-72.4c14.2,7.5,30.3,11.7,47.5,11.7c45.4,0,84-29.7,97.4-70.7l45.9,8.2c1.9,28.9,25.9,51.8,55.2,51.8
	c30.6,0,55.4-24.9,55.4-55.4S485.1,240,454.6,240z M114.4,484.8c-15,0-27.2-12.2-27.2-27.2s12.2-27.2,27.2-27.2s27.2,12.2,27.2,27.2
	C141.6,472.6,129.4,484.8,114.4,484.8z M30.2,74.8c0-22.9,18.7-41.6,41.6-41.6s41.6,18.7,41.6,41.6s-18.7,41.6-41.6,41.6
	S30.2,97.8,30.2,74.8z M256,333.3c-41,0-74.3-33.3-74.3-74.3s33.3-74.3,74.3-74.3s74.3,33.3,74.3,74.3S297,333.3,256,333.3z
	 M454.6,322.6c-15,0-27.2-12.2-27.2-27.2s12.2-27.2,27.2-27.2s27.2,12.2,27.2,27.2C481.8,310.4,469.6,322.6,454.6,322.6z"/>
</svg>
