<?xml version="1.0" encoding="utf-8"?>
<!-- Generator: Adobe Illustrator 22.0.1, SVG Export Plug-In . SVG Version: 6.00 Build 0)  -->
<svg version="1.1" id="Layer_1" xmlns="http://www.w3.org/2000/svg" xmlns:xlink="http://www.w3.org/1999/xlink" x="0px" y="0px"
	 viewBox="0 0 100 99" style="enable-background:new 0 0 100 99;" xml:space="preserve">
<style type="text/css">
	.st0{fill:#65A9B6;}
</style>
<circle class="st0" cx="43.5" cy="53.6" r="2.9"/>
<circle class="st0" cx="55.9" cy="53.6" r="2.9"/>
<circle class="st0" cx="50" cy="42.5" r="2.9"/>
<circle class="st0" cx="42.6" cy="32.8" r="2.9"/>
<circle class="st0" cx="57.5" cy="33" r="2.9"/>
<circle class="st0" cx="67.2" cy="42.9" r="2.9"/>
<circle class="st0" cx="32.8" cy="42.9" r="2.9"/>
<path class="st0" d="M70,57.1L70,57.1c0-1.6-1.3-2.9-2.9-2.8c-1.6,0-2.8,1.3-2.8,2.9c0,1.6,1.3,2.8,2.9,2.8l0,0
	C68.8,60,70.1,58.7,70,57.1z"/>
<circle class="st0" cx="57.5" cy="67.2" r="2.9"/>
<circle class="st0" cx="42.6" cy="67.2" r="2.9"/>
<circle class="st0" cx="32.8" cy="57.1" r="2.9"/>
<circle class="st0" cx="35.8" cy="23.9" r="2.9"/>
<circle class="st0" cx="25" cy="33.4" r="2.9"/>
<circle class="st0" cx="20.2" cy="46.6" r="2.9"/>
<circle class="st0" cx="21.9" cy="61.1" r="2.9"/>
<circle class="st0" cx="30" cy="73" r="2.9"/>
<circle class="st0" cx="42.6" cy="79.6" r="2.9"/>
<circle class="st0" cx="57.5" cy="79.6" r="2.9"/>
<circle class="st0" cx="70" cy="73" r="2.9"/>
<circle class="st0" cx="78" cy="61.1" r="2.9"/>
<circle class="st0" cx="79.8" cy="46.6" r="2.9"/>
<circle class="st0" cx="74.6" cy="33.4" r="2.9"/>
<circle class="st0" cx="64" cy="23.9" r="2.9"/>
<circle class="st0" cx="50" cy="20.4" r="2.9"/>
<circle class="st0" cx="29" cy="13.7" r="2.9"/>
<circle class="st0" cx="17.8" cy="22.8" r="2.9"/>
<circle class="st0" cx="10.2" cy="35.4" r="2.9"/>
<circle class="st0" cx="7.9" cy="50" r="2.9"/>
<circle class="st0" cx="10.2" cy="64.3" r="2.9"/>
<circle class="st0" cx="17.8" cy="77.2" r="2.9"/>
<circle class="st0" cx="29" cy="86.7" r="2.9"/>
<circle class="st0" cx="42.6" cy="91.5" r="2.9"/>
<circle class="st0" cx="57.5" cy="91.5" r="2.9"/>
<circle class="st0" cx="71.2" cy="86.3" r="2.9"/>
<circle class="st0" cx="82.2" cy="77.2" r="2.9"/>
<circle class="st0" cx="89.7" cy="64.3" r="2.9"/>
<circle class="st0" cx="92.1" cy="50" r="2.9"/>
<circle class="st0" cx="89.7" cy="35.7" r="2.9"/>
<circle class="st0" cx="82.2" cy="22.8" r="2.9"/>
<circle class="st0" cx="71.2" cy="13.7" r="2.9"/>
<circle class="st0" cx="57.5" cy="8.5" r="2.9"/>
<circle class="st0" cx="42.6" cy="8.5" r="2.9"/>
</svg>
